<?xml version="1.0" encoding="utf-8"?>
<!-- Generator: Adobe Illustrator 19.2.1, SVG Export Plug-In . SVG Version: 6.00 Build 0)  -->
<svg version="1.1" id="layer" xmlns="http://www.w3.org/2000/svg" xmlns:xlink="http://www.w3.org/1999/xlink" x="0px" y="0px"
	 viewBox="0 0 652 652" style="enable-background:new 0 0 652 652;" xml:space="preserve">
<style type="text/css">
	.st0{fill:#F12742;}
</style>
<path class="st0" d="M275.6,334.3c-6.1,0-12.6-4.2-12.6-13.5c0-9.3,6.5-13.5,12.6-13.5c6.1,0,12.6,4.2,12.6,13.5
	C288.2,330.1,281.7,334.3,275.6,334.3z M298.1,320.9c0-14.6-10.9-23.2-23.1-23.2c-12.2,0-22.1,9.6-22.1,23.2
	c0,13,9.1,22.5,20.7,23.2c1.8,0.1,9.7,0,15.9-6.6h0.2l7.2,6.6h1.4v-22.8C298.2,321.3,298.1,320.9,298.1,320.9z M365.2,275.4
	c3.6,0,6.5,2.9,6.5,6.5s-2.9,6.5-6.5,6.5c-3.4,0-6.3-2.9-6.3-6.5S361.7,275.4,365.2,275.4 M360.6,344.1h9.4v-46.3h-9.4V344.1z
	 M412,328.1c-2.3,4.3-6.7,6.3-10.9,6.3c-6.1,0-12.6-4.2-12.6-13.5c0-9.3,6.5-13.5,12.6-13.5c4.2,0,8.6,2,10.9,6.2l8.7-5.1
	c-4-7-11.3-11-19.6-11c-12.2,0-22.7,9.1-22.7,23.2c0,14.2,10.4,23.3,22.7,23.3c8.3,0,15.6-4,19.6-11L412,328.1L412,328.1z
	 M225.3,296.8c-3.6,0-7.1,1-9.9,2.7c-1.2,0.8-3.6,2.6-4.6,4.4h-0.2c-1-1.8-3.4-3.6-4.6-4.4c-2.9-1.8-6.3-2.7-9.9-2.7
	c-10.8,0-19.6,9-19.6,20v26.9h10v-26.9c0-5.4,4.3-9.9,9.7-9.9c5.3,0,9.7,4.4,9.7,9.9v26.9h9.9v-26.9c0-5.4,4.3-9.9,9.7-9.9
	c5.3,0,9.7,4.4,9.7,9.9v26.9h10v-26.9C244.9,305.7,236.1,296.8,225.3,296.8 M463,343.7c-9.6,0-17.3-6-17.3-17.1v-41.5h9.7v40.7
	c0,5.4,3,8.1,7.6,8.1V343.7z M597.4,335c-6.1,0-12.6-4.2-12.6-13.5c0-9.3,6.5-13.5,12.6-13.5c6.1,0,12.6,4.2,12.6,13.5
	C609.9,330.8,603.4,335,597.4,335 M620.1,321.4c0-14.1-10.4-23.2-22.7-23.2c-11.7,0-21.8,8.3-22.7,21.2v47.9h9.4v-29.2
	c3.9,5.7,11.5,6.4,14,6.5h0.9h-0.1C609.6,344.4,620.1,335.6,620.1,321.4 M543.4,334.9c-6.1,0-12.6-4.2-12.6-13.5
	c0-9.3,6.5-13.5,12.6-13.5c6.1,0,12.6,4.2,12.6,13.5C555.9,330.8,549.4,334.9,543.4,334.9z M565.8,321.4c0-14.6-10.9-23.2-23.1-23.2
	s-22.1,9.6-22.1,23.2c0,13.2,9.3,22.6,21,23.2h0.9c1.4,0,3.7-0.2,6.4-1.2c0.7-0.2,1.3-0.6,2-0.9c1.9-1,3.9-2.4,5.7-4.4h0.2l7.6,6.4
	h1.4V321.4z M491.1,307.6c6.1,0,10.5,3.6,12.3,8.5H479C480.8,311,485.2,307.6,491.1,307.6z M501.7,329.4c-2.3,3.3-6.1,5.3-10.6,5.3
	c-6.9,0-11.6-4.4-12.8-10.2h35.4c0.1-1,0.2-2.1,0.2-3.1c0-12.8-10.2-23.3-22.8-23.3c-12.6,0-22.8,10.5-22.8,23.3
	s10.2,23.3,22.8,23.3c8.4,0,15.6-4.6,19.6-11.4L501.7,329.4z M328.2,334.4c-6.1,0-12.6-4.2-12.6-13.5c0-9.3,6.5-13.5,12.6-13.5
	c6.1,0,12.7,4.2,12.7,13.5C341,330.3,334.4,334.4,328.2,334.4z M350.9,320.8c0-14.1-10.5-23-22.7-23c-12.2,0-22.7,9.1-22.7,23.2
	c0,14.2,10.5,23.3,22,23.3h1.3c3.8-0.4,7.5-1.9,10.4-4.5l0.6-0.6c0.7-0.8,1.2-1.8,1.4-2.7v7c0,0,0.2,5.2-3.2,9.2
	c-2.4,3-6.2,4.5-9.7,4.5c-4.5,0-9.4-2.4-11.5-7.4l-9.3,3.9c3.6,8.3,11.6,13.3,20.6,13.3c12.3,0,22.7-9.1,22.7-23.2L350.9,320.8
	L350.9,320.8z M128.5,309.6c-5.1-19.7-22.7-34.3-43.6-34.3c-20.9,0-38.5,14.6-43.6,34.3c-10.4,9.2-17.8,21.3-21.2,34.7
	c7.4-2.6,15-4.7,22.8-6.1c6.6,17.2,22.9,29.3,42,29.3c19.2,0,35.5-12.1,42-29.3c8.4,1.6,16,3.6,22.8,6.1
	C146.3,330.9,138.9,318.8,128.5,309.6 M71,308.8c-2,6.5-7.9,10.3-13.1,8.6c-5.3-1.7-7.9-8.2-6-14.7c1.9-6.5,7.9-10.3,13.1-8.6
	C70.2,295.7,72.9,302.4,71,308.8 M111.7,317.4c-5.3,1.7-11.1-2.2-13.1-8.6c-2-6.5,0.7-13,6-14.7c5.3-1.7,11.1,2.2,13.1,8.6
	C119.8,309.2,117.1,315.7,111.7,317.4"/>
</svg>
